<?xml version="1.0" encoding="utf-8"?>
<svg id="master-artboard" viewBox="0 0 1400 980" version="1.1" xmlns="http://www.w3.org/2000/svg" x="0px" y="0px" style="enable-background:new 0 0 1400 980;" width="1400px" height="980px"><defs><style id="ee-google-fonts">@import url(https://fonts.googleapis.com/css?family=Lobster:400);</style></defs><path d="M 472.2043762207031 370.92498779296875 L 476.81439208984375 338.5849914550781 L 463.2743835449219 370.92498779296875 L 453.3943786621094 370.92498779296875 L 454.8443603515625 338.4449768066406 L 442.8143615722656 370.92498779296875 L 437.05438232421875 370.92498779296875 L 455.3343811035156 321.4649963378906 C 451.7477111816406 322.6583251953125 448.94769287109375 324.6183166503906 446.93438720703125 327.344970703125 C 444.91436767578125 330.07830810546875 443.9043884277344 333.518310546875 443.9043884277344 337.66497802734375 C 443.9043884277344 338.625 443.95770263671875 339.39166259765625 444.0643615722656 339.9649963378906 C 444.1710510253906 340.54498291015625 444.2810363769531 341.0049743652344 444.3943786621094 341.3450012207031 C 444.5143737792969 341.68499755859375 444.6277160644531 341.941650390625 444.734375 342.114990234375 C 444.8410339355469 342.288330078125 444.8943786621094 342.45831298828125 444.8943786621094 342.625 C 443.7210388183594 342.625 442.65771484375 342.5083312988281 441.7043762207031 342.2749938964844 C 440.7577209472656 342.0416564941406 439.9510498046875 341.66497802734375 439.28436279296875 341.1449890136719 C 438.6177062988281 340.63165283203125 438.1010437011719 339.95831298828125 437.734375 339.125 C 437.3743896484375 338.2916564941406 437.1943664550781 337.2783203125 437.1943664550781 336.0849914550781 C 437.1943664550781 334.5583190917969 437.5043640136719 333.02166748046875 438.1243896484375 331.4749755859375 C 438.744384765625 329.9283142089844 439.6010437011719 328.4483337402344 440.6943664550781 327.03497314453125 C 441.7810363769531 325.614990234375 443.06103515625 324.288330078125 444.53436279296875 323.05499267578125 C 446.0143737792969 321.82830810546875 447.6043701171875 320.7583312988281 449.30438232421875 319.844970703125 C 451.0043640136719 318.931640625 452.7743835449219 318.2149963378906 454.6143798828125 317.6949768066406 C 456.4543762207031 317.181640625 458.2877197265625 316.92498779296875 460.1143798828125 316.92498779296875 C 461.9210510253906 316.92498779296875 463.7377014160156 317.2649841308594 465.56439208984375 317.9449768066406 L 463.91436767578125 355.875 L 479.7643737792969 317.9449768066406 L 490.1343688964844 317.9449768066406 L 482.5743713378906 370.92498779296875 L 472.2043762207031 370.92498779296875 ZM 518.9951782226562 358.0249938964844 C 517.9884643554688 359.711669921875 516.8351440429688 361.3516540527344 515.53515625 362.9449768066406 C 514.2351684570312 364.538330078125 512.7717895507812 365.9549865722656 511.1451416015625 367.1949768066406 C 509.5118103027344 368.441650390625 507.70513916015625 369.4449768066406 505.72515869140625 370.2049865722656 C 503.7451477050781 370.9649963378906 501.5718078613281 371.3450012207031 499.20513916015625 371.3450012207031 C 497.4918212890625 371.3450012207031 495.9451599121094 371.1283264160156 494.5651550292969 370.6949768066406 C 493.1851501464844 370.26165771484375 492.0018310546875 369.58831787109375 491.01513671875 368.67498779296875 C 490.0284729003906 367.76165771484375 489.2718200683594 366.5849914550781 488.7451477050781 365.1449890136719 C 488.2184753417969 363.6983337402344 487.95513916015625 361.95831298828125 487.95513916015625 359.92498779296875 C 487.95513916015625 358.538330078125 488.09515380859375 356.941650390625 488.3751525878906 355.1349792480469 C 488.6551513671875 353.3349914550781 489.101806640625 351.4849853515625 489.71514892578125 349.5849914550781 C 490.3218078613281 347.68499755859375 491.12847900390625 345.8216552734375 492.1351623535156 343.9949951171875 C 493.14849853515625 342.1683349609375 494.36846923828125 340.53497314453125 495.795166015625 339.0950012207031 C 497.2284851074219 337.6483154296875 498.9051513671875 336.4883117675781 500.8251647949219 335.614990234375 C 502.7451477050781 334.7349853515625 504.9351501464844 334.29498291015625 507.3951416015625 334.29498291015625 C 509.01513671875 334.29498291015625 510.33514404296875 334.4883117675781 511.35516357421875 334.875 C 512.3751220703125 335.26165771484375 513.1818237304688 335.77166748046875 513.775146484375 336.4049987792969 C 514.3751220703125 337.038330078125 514.78515625 337.768310546875 515.005126953125 338.594970703125 C 515.2318115234375 339.4283142089844 515.3451538085938 340.2916564941406 515.3451538085938 341.18499755859375 C 515.3451538085938 343.27166748046875 514.8884887695312 345.211669921875 513.9751586914062 347.0049743652344 C 513.0618286132812 348.7983093261719 511.83514404296875 350.3616638183594 510.295166015625 351.6949768066406 C 508.7618103027344 353.0283203125 506.99847412109375 354.10498046875 505.0051574707031 354.92498779296875 C 503.0118103027344 355.7449951171875 500.9384765625 356.22833251953125 498.78515625 356.375 C 498.7384948730469 356.9083251953125 498.698486328125 357.41497802734375 498.6651611328125 357.8949890136719 C 498.6251525878906 358.38165283203125 498.60516357421875 358.8349914550781 498.60516357421875 359.2549743652344 C 498.60516357421875 360.4749755859375 498.7184753417969 361.4749755859375 498.9451599121094 362.2549743652344 C 499.1651611328125 363.0416564941406 499.4918212890625 363.6583251953125 499.9251403808594 364.10498046875 C 500.3584899902344 364.5516662597656 500.89849853515625 364.8616638183594 501.545166015625 365.03497314453125 C 502.19183349609375 365.20831298828125 502.948486328125 365.29498291015625 503.8151550292969 365.29498291015625 C 505.2418212890625 365.29498291015625 506.53515625 365.1083068847656 507.6951599121094 364.7349853515625 C 508.85516357421875 364.3616638183594 509.9384765625 363.84832763671875 510.9451599121094 363.1949768066406 C 511.9518127441406 362.53497314453125 512.9085083007812 361.76165771484375 513.8151245117188 360.875 C 514.7151489257812 359.9816589355469 515.621826171875 359.0316467285156 516.53515625 358.0249938964844 L 518.9951782226562 358.0249938964844 M 499.34515380859375 352.92498779296875 C 500.70513916015625 352.8316650390625 502.01849365234375 352.4449768066406 503.28515625 351.7649841308594 C 504.55181884765625 351.0849914550781 505.6651611328125 350.20166015625 506.6251525878906 349.114990234375 C 507.58514404296875 348.02166748046875 508.351806640625 346.7783203125 508.9251403808594 345.3849792480469 C 509.49847412109375 343.9916687011719 509.78515625 342.54498291015625 509.78515625 341.04498291015625 C 509.78515625 340.1516418457031 509.6584777832031 339.43499755859375 509.4051513671875 338.8949890136719 C 509.1451416015625 338.35498046875 508.6751403808594 338.0849914550781 507.9951477050781 338.0849914550781 C 507.0818176269531 338.0849914550781 506.1851501464844 338.5249938964844 505.3051452636719 339.4049987792969 C 504.4251403808594 340.28497314453125 503.5984802246094 341.4283142089844 502.8251647949219 342.8349914550781 C 502.05181884765625 344.2416687011719 501.36846923828125 345.82830810546875 500.775146484375 347.5950012207031 C 500.1751403808594 349.3683166503906 499.698486328125 351.1449890136719 499.34515380859375 352.92498779296875 ZM 573.6974487304688 358.0249938964844 C 572.6907958984375 360.97833251953125 571.6074829101562 363.3316650390625 570.4474487304688 365.0849914550781 C 569.2874755859375 366.8450012207031 568.1174926757812 368.1883239746094 566.9375 369.114990234375 C 565.7507934570312 370.0416564941406 564.5908203125 370.6449890136719 563.4574584960938 370.92498779296875 C 562.3175048828125 371.2049865722656 561.2674560546875 371.3450012207031 560.3074951171875 371.3450012207031 C 558.714111328125 371.3450012207031 557.3775024414062 371.1183166503906 556.2974853515625 370.66497802734375 C 555.2174682617188 370.2049865722656 554.350830078125 369.5950012207031 553.6974487304688 368.8349914550781 C 553.0441284179688 368.0749816894531 552.57080078125 367.20831298828125 552.2774658203125 366.2349853515625 C 551.984130859375 365.26165771484375 551.8374633789062 364.2583312988281 551.8374633789062 363.2249755859375 C 551.8374633789062 362.0049743652344 552.0074462890625 360.5816650390625 552.3474731445312 358.9549865722656 C 552.6875 357.32830810546875 553.0541381835938 355.6583251953125 553.4474487304688 353.9449768066406 C 553.8474731445312 352.2316589355469 554.2174682617188 350.57830810546875 554.5574951171875 348.9849853515625 C 554.8974609375 347.39166259765625 555.0675048828125 346.02166748046875 555.0675048828125 344.875 C 555.0675048828125 342.41497802734375 554.2008056640625 341.18499755859375 552.4674682617188 341.18499755859375 C 551.8141479492188 341.18499755859375 551.2041625976562 341.3616638183594 550.637451171875 341.7149963378906 C 550.0774536132812 342.0616455078125 549.560791015625 342.53497314453125 549.0874633789062 343.1349792480469 C 548.6207885742188 343.7349853515625 548.2008056640625 344.4383239746094 547.8274536132812 345.2449951171875 C 547.4541625976562 346.0516662597656 547.1241455078125 346.9116516113281 546.8374633789062 347.8249816894531 L 541.9574584960938 370.92498779296875 L 531.5874633789062 370.92498779296875 L 536.8574829101562 346.06500244140625 C 536.9974975585938 345.5049743652344 537.0675048828125 344.9083251953125 537.0675048828125 344.2749938964844 C 537.0675048828125 343.85498046875 537.0341186523438 343.45831298828125 536.9674682617188 343.0849914550781 C 536.8941650390625 342.7049865722656 536.7708129882812 342.3683166503906 536.5974731445312 342.0749816894531 C 536.41748046875 341.7816467285156 536.1941528320312 341.5483093261719 535.927490234375 341.375 C 535.6541137695312 341.20166015625 535.3074951171875 341.114990234375 534.887451171875 341.114990234375 C 534.1875 341.114990234375 533.5374755859375 341.288330078125 532.9375 341.6349792480469 C 532.3374633789062 341.9883117675781 531.7974853515625 342.4716491699219 531.3175048828125 343.0849914550781 C 530.8374633789062 343.691650390625 530.4108276367188 344.4049987792969 530.0374755859375 345.2249755859375 C 529.6641235351562 346.04498291015625 529.3374633789062 346.9116516113281 529.0574951171875 347.8249816894531 L 524.16748046875 370.92498779296875 L 513.7974853515625 370.92498779296875 L 521.427490234375 334.92498779296875 L 531.7974853515625 334.92498779296875 L 531.0174560546875 338.6549987792969 C 531.7908325195312 337.788330078125 532.5641479492188 337.08831787109375 533.3374633789062 336.55499267578125 C 534.11083984375 336.0283203125 534.8741455078125 335.6183166503906 535.6275024414062 335.3249816894531 C 536.3741455078125 335.0316467285156 537.100830078125 334.8349914550781 537.8074951171875 334.7349853515625 C 538.5074462890625 334.6283264160156 539.1741333007812 334.5749816894531 539.8074951171875 334.5749816894531 C 540.7474975585938 334.5749816894531 541.6275024414062 334.68499755859375 542.4474487304688 334.9049987792969 C 543.2674560546875 335.13165283203125 543.994140625 335.4883117675781 544.6275024414062 335.9749755859375 C 545.2608032226562 336.46832275390625 545.80078125 337.10833740234375 546.2474975585938 337.8949890136719 C 546.6941528320312 338.681640625 547.0108032226562 339.6383056640625 547.1974487304688 340.7649841308594 C 548.0641479492188 339.42498779296875 548.9541625976562 338.3516540527344 549.8674926757812 337.54498291015625 C 550.7808227539062 336.7383117675781 551.6708374023438 336.12164306640625 552.5374755859375 335.6949768066406 C 553.4041137695312 335.2749938964844 554.2374877929688 334.9949951171875 555.0374755859375 334.85498046875 C 555.830810546875 334.7149963378906 556.5574951171875 334.6449890136719 557.2174682617188 334.6449890136719 C 558.3641357421875 334.6449890136719 559.4241333007812 334.7983093261719 560.3974609375 335.10498046875 C 561.3707885742188 335.4049987792969 562.214111328125 335.8849792480469 562.927490234375 336.54498291015625 C 563.6408081054688 337.1983337402344 564.1974487304688 338.0416564941406 564.5974731445312 339.0749816894531 C 564.9974975585938 340.1083068847656 565.1974487304688 341.33831787109375 565.1974487304688 342.7649841308594 C 565.1974487304688 343.7249755859375 565.1074829101562 344.76165771484375 564.927490234375 345.875 C 564.754150390625 346.9883117675781 564.5441284179688 348.125 564.2974853515625 349.28497314453125 C 564.05078125 350.4449768066406 563.774169921875 351.59832763671875 563.4674682617188 352.7449951171875 C 563.16748046875 353.8983154296875 562.8941650390625 355.00164794921875 562.6474609375 356.05499267578125 C 562.4008178710938 357.1083068847656 562.1875 358.0849914550781 562.0074462890625 358.9849853515625 C 561.8341674804688 359.89166259765625 561.7474975585938 360.68499755859375 561.7474975585938 361.364990234375 C 561.7474975585938 362.25164794921875 561.9541625976562 362.97833251953125 562.3674926757812 363.54498291015625 C 562.774169921875 364.10498046875 563.5274658203125 364.3849792480469 564.6275024414062 364.3849792480469 C 565.4008178710938 364.3849792480469 566.080810546875 364.2316589355469 566.66748046875 363.92498779296875 C 567.254150390625 363.625 567.7808227539062 363.191650390625 568.2474975585938 362.625 C 568.7208251953125 362.06500244140625 569.1508178710938 361.39166259765625 569.5374755859375 360.60498046875 C 569.9241333007812 359.8183288574219 570.3041381835938 358.95831298828125 570.677490234375 358.0249938964844 L 573.6974487304688 358.0249938964844 ZM 600.7670288085938 358.0249938964844 C 599.7603149414062 359.711669921875 598.6069946289062 361.3516540527344 597.3070068359375 362.9449768066406 C 596.0070190429688 364.538330078125 594.5436401367188 365.9549865722656 592.9169921875 367.1949768066406 C 591.28369140625 368.441650390625 589.4769897460938 369.4449768066406 587.4970092773438 370.2049865722656 C 585.5170288085938 370.9649963378906 583.3436889648438 371.3450012207031 580.9769897460938 371.3450012207031 C 579.263671875 371.3450012207031 577.7169799804688 371.1283264160156 576.3369750976562 370.6949768066406 C 574.95703125 370.26165771484375 573.773681640625 369.58831787109375 572.7869873046875 368.67498779296875 C 571.8003540039062 367.76165771484375 571.0436401367188 366.5849914550781 570.5170288085938 365.1449890136719 C 569.9903564453125 363.6983337402344 569.7269897460938 361.95831298828125 569.7269897460938 359.92498779296875 C 569.7269897460938 358.538330078125 569.8670043945312 356.941650390625 570.14697265625 355.1349792480469 C 570.427001953125 353.3349914550781 570.8736572265625 351.4849853515625 571.4869995117188 349.5849914550781 C 572.0936889648438 347.68499755859375 572.9003295898438 345.8216552734375 573.906982421875 343.9949951171875 C 574.9203491210938 342.1683349609375 576.1403198242188 340.53497314453125 577.5670166015625 339.0950012207031 C 579.0003662109375 337.6483154296875 580.677001953125 336.4883117675781 582.5969848632812 335.614990234375 C 584.5170288085938 334.7349853515625 586.70703125 334.29498291015625 589.1669921875 334.29498291015625 C 590.7869873046875 334.29498291015625 592.1069946289062 334.4883117675781 593.1270141601562 334.875 C 594.14697265625 335.26165771484375 594.9536743164062 335.77166748046875 595.5469970703125 336.4049987792969 C 596.14697265625 337.038330078125 596.5570068359375 337.768310546875 596.7769775390625 338.594970703125 C 597.003662109375 339.4283142089844 597.1170043945312 340.2916564941406 597.1170043945312 341.18499755859375 C 597.1170043945312 343.27166748046875 596.6603393554688 345.211669921875 595.7470092773438 347.0049743652344 C 594.8336791992188 348.7983093261719 593.6069946289062 350.3616638183594 592.0670166015625 351.6949768066406 C 590.53369140625 353.0283203125 588.7703247070312 354.10498046875 586.7769775390625 354.92498779296875 C 584.78369140625 355.7449951171875 582.7103271484375 356.22833251953125 580.5570068359375 356.375 C 580.5103149414062 356.9083251953125 580.4703369140625 357.41497802734375 580.43701171875 357.8949890136719 C 580.39697265625 358.38165283203125 580.3770141601562 358.8349914550781 580.3770141601562 359.2549743652344 C 580.3770141601562 360.4749755859375 580.4903564453125 361.4749755859375 580.7169799804688 362.2549743652344 C 580.93701171875 363.0416564941406 581.263671875 363.6583251953125 581.697021484375 364.10498046875 C 582.1303100585938 364.5516662597656 582.6703491210938 364.8616638183594 583.3170166015625 365.03497314453125 C 583.9636840820312 365.20831298828125 584.7203369140625 365.29498291015625 585.5869750976562 365.29498291015625 C 587.013671875 365.29498291015625 588.3070068359375 365.1083068847656 589.4669799804688 364.7349853515625 C 590.6270141601562 364.3616638183594 591.7103271484375 363.84832763671875 592.7169799804688 363.1949768066406 C 593.7236938476562 362.53497314453125 594.6803588867188 361.76165771484375 595.5869750976562 360.875 C 596.4869995117188 359.9816589355469 597.3936767578125 359.0316467285156 598.3070068359375 358.0249938964844 L 600.7670288085938 358.0249938964844 M 581.1170043945312 352.92498779296875 C 582.4769897460938 352.8316650390625 583.7903442382812 352.4449768066406 585.0570068359375 351.7649841308594 C 586.3236694335938 351.0849914550781 587.43701171875 350.20166015625 588.39697265625 349.114990234375 C 589.3569946289062 348.02166748046875 590.1236572265625 346.7783203125 590.697021484375 345.3849792480469 C 591.2703247070312 343.9916687011719 591.5570068359375 342.54498291015625 591.5570068359375 341.04498291015625 C 591.5570068359375 340.1516418457031 591.4303588867188 339.43499755859375 591.177001953125 338.8949890136719 C 590.9169921875 338.35498046875 590.447021484375 338.0849914550781 589.7670288085938 338.0849914550781 C 588.8536376953125 338.0849914550781 587.95703125 338.5249938964844 587.0770263671875 339.4049987792969 C 586.197021484375 340.28497314453125 585.370361328125 341.4283142089844 584.5969848632812 342.8349914550781 C 583.8236694335938 344.2416687011719 583.1403198242188 345.82830810546875 582.5469970703125 347.5950012207031 C 581.947021484375 349.3683166503906 581.4703369140625 351.1449890136719 581.1170043945312 352.92498779296875 ZM 637.6893310546875 358.0249938964844 C 636.6759643554688 360.97833251953125 635.58935546875 363.3316650390625 634.4293212890625 365.0849914550781 C 633.2693481445312 366.8450012207031 632.0993041992188 368.1883239746094 630.9193115234375 369.114990234375 C 629.732666015625 370.0416564941406 628.5726318359375 370.6449890136719 627.4393310546875 370.92498779296875 C 626.29931640625 371.2049865722656 625.2493286132812 371.3450012207031 624.289306640625 371.3450012207031 C 622.6959838867188 371.3450012207031 621.3593139648438 371.1183166503906 620.279296875 370.66497802734375 C 619.2059936523438 370.2049865722656 618.33935546875 369.5950012207031 617.6793212890625 368.8349914550781 C 617.0260009765625 368.0749816894531 616.5526733398438 367.20831298828125 616.2593383789062 366.2349853515625 C 615.9660034179688 365.26165771484375 615.8193359375 364.2583312988281 615.8193359375 363.2249755859375 C 615.8193359375 362.0049743652344 615.9893188476562 360.5816650390625 616.329345703125 358.9549865722656 C 616.6693115234375 357.32830810546875 617.039306640625 355.6583251953125 617.4393310546875 353.9449768066406 C 617.8326416015625 352.2316589355469 618.1993408203125 350.57830810546875 618.539306640625 348.9849853515625 C 618.8793334960938 347.39166259765625 619.04931640625 346.02166748046875 619.04931640625 344.875 C 619.04931640625 342.41497802734375 618.1826782226562 341.18499755859375 616.4493408203125 341.18499755859375 C 615.7960205078125 341.18499755859375 615.1859741210938 341.3616638183594 614.6193237304688 341.7149963378906 C 614.059326171875 342.0616455078125 613.5460205078125 342.53497314453125 613.079345703125 343.1349792480469 C 612.6060180664062 343.7349853515625 612.1826782226562 344.4383239746094 611.809326171875 345.2449951171875 C 611.4359741210938 346.0516662597656 611.1093139648438 346.9116516113281 610.829345703125 347.8249816894531 L 605.9393310546875 370.92498779296875 L 595.5693359375 370.92498779296875 L 603.1993408203125 334.92498779296875 L 613.5693359375 334.92498779296875 L 612.789306640625 338.6549987792969 C 613.5626831054688 337.788330078125 614.3326416015625 337.08831787109375 615.0993041992188 336.55499267578125 C 615.8593139648438 336.0283203125 616.6026611328125 335.625 617.329345703125 335.344970703125 C 618.0559692382812 335.06500244140625 618.74267578125 334.8783264160156 619.3893432617188 334.78497314453125 C 620.029296875 334.691650390625 620.6326904296875 334.6449890136719 621.1993408203125 334.6449890136719 C 622.3460083007812 334.6449890136719 623.4126586914062 334.7983093261719 624.3993530273438 335.10498046875 C 625.3793334960938 335.4049987792969 626.2260131835938 335.8849792480469 626.9393310546875 336.54498291015625 C 627.6593017578125 337.1983337402344 628.2160034179688 338.0416564941406 628.6093139648438 339.0749816894531 C 629.0093383789062 340.1083068847656 629.2093505859375 341.33831787109375 629.2093505859375 342.7649841308594 C 629.2093505859375 343.7249755859375 629.1226806640625 344.76165771484375 628.9493408203125 345.875 C 628.7760009765625 346.9883117675781 628.559326171875 348.125 628.29931640625 349.28497314453125 C 628.039306640625 350.4449768066406 627.7626342773438 351.59832763671875 627.4692993164062 352.7449951171875 C 627.1759643554688 353.8983154296875 626.9026489257812 355.00164794921875 626.6493530273438 356.05499267578125 C 626.3893432617188 357.1083068847656 626.1726684570312 358.0849914550781 625.9993286132812 358.9849853515625 C 625.8193359375 359.89166259765625 625.7293090820312 360.68499755859375 625.7293090820312 361.364990234375 C 625.7293090820312 362.25164794921875 625.9359741210938 362.97833251953125 626.3493041992188 363.54498291015625 C 626.7559814453125 364.10498046875 627.5093383789062 364.3849792480469 628.6093139648438 364.3849792480469 C 629.3826904296875 364.3849792480469 630.0626831054688 364.2316589355469 630.6493530273438 363.92498779296875 C 631.2359619140625 363.625 631.7659912109375 363.191650390625 632.2393188476562 362.625 C 632.7059936523438 362.06500244140625 633.1326904296875 361.39166259765625 633.5193481445312 360.60498046875 C 633.906005859375 359.8183288574219 634.2860107421875 358.95831298828125 634.6593017578125 358.0249938964844 L 637.6893310546875 358.0249938964844 ZM 656.91015625 358.0249938964844 C 656.2301635742188 359.9716491699219 655.476806640625 361.6583251953125 654.650146484375 363.0849914550781 C 653.8168334960938 364.51165771484375 652.9468383789062 365.71832275390625 652.0401611328125 366.7049865722656 C 651.14013671875 367.691650390625 650.216796875 368.4883117675781 649.2701416015625 369.0950012207031 C 648.3168334960938 369.70831298828125 647.3968505859375 370.1783142089844 646.5101318359375 370.5049743652344 C 645.6168212890625 370.8316650390625 644.766845703125 371.05499267578125 643.9601440429688 371.17498779296875 C 643.1535034179688 371.288330078125 642.4334716796875 371.3450012207031 641.8001708984375 371.3450012207031 C 640.7201538085938 371.3450012207031 639.7101440429688 371.181640625 638.7701416015625 370.85498046875 C 637.8368530273438 370.5283203125 637.0234985351562 370.01165771484375 636.3301391601562 369.30499267578125 C 635.6368408203125 368.60498046875 635.093505859375 367.7149963378906 634.7001342773438 366.6349792480469 C 634.3001708984375 365.55499267578125 634.1001586914062 364.2549743652344 634.1001586914062 362.7349853515625 C 634.1001586914062 362.0749816894531 634.1468505859375 361.35498046875 634.2401733398438 360.5749816894531 C 634.33349609375 359.788330078125 634.4735107421875 358.9383239746094 634.66015625 358.0249938964844 L 638.9801635742188 337.80499267578125 L 636.5901489257812 337.80499267578125 L 637.190185546875 334.92498779296875 L 639.5501708984375 334.92498779296875 L 641.7301635742188 324.9749755859375 L 652.380126953125 323.53497314453125 L 649.920166015625 334.92498779296875 L 654.2401733398438 334.92498779296875 L 653.68017578125 337.80499267578125 L 649.3601684570312 337.80499267578125 L 644.7501831054688 359.3949890136719 C 644.630126953125 359.79498291015625 644.553466796875 360.1883239746094 644.5201416015625 360.5749816894531 C 644.48681640625 360.961669921875 644.4701538085938 361.3416442871094 644.4701538085938 361.7149963378906 C 644.4701538085938 362.7216491699219 644.7034912109375 363.4183349609375 645.170166015625 363.80499267578125 C 645.6368408203125 364.191650390625 646.3768310546875 364.3849792480469 647.39013671875 364.3849792480469 C 648.0901489257812 364.3849792480469 648.7734985351562 364.22833251953125 649.440185546875 363.91497802734375 C 650.1134643554688 363.5950012207031 650.7301635742188 363.1549987792969 651.2901611328125 362.5950012207031 C 651.8501586914062 362.0283203125 652.353515625 361.35498046875 652.8001708984375 360.5749816894531 C 653.246826171875 359.788330078125 653.6101684570312 358.9383239746094 653.89013671875 358.0249938964844 L 656.91015625 358.0249938964844 ZM 694.3502807617188 343.5749816894531 C 692.9502563476562 345.0483093261719 691.1369018554688 346.3016662597656 688.9102783203125 347.3349914550781 C 686.68359375 348.3683166503906 684.2435913085938 349.10498046875 681.5902709960938 349.54498291015625 C 681.3102416992188 352.8783264160156 680.673583984375 355.8783264160156 679.6802368164062 358.54498291015625 C 678.6802368164062 361.21832275390625 677.4202880859375 363.4949951171875 675.9002685546875 365.375 C 674.3735961914062 367.2483215332031 672.626953125 368.6883239746094 670.6602783203125 369.6949768066406 C 668.693603515625 370.70166015625 666.60693359375 371.2049865722656 664.4002685546875 371.2049865722656 C 662.740234375 371.2049865722656 661.2002563476562 371.00164794921875 659.7802734375 370.5950012207031 C 658.3602294921875 370.181640625 657.1402587890625 369.5249938964844 656.1202392578125 368.625 C 655.1002807617188 367.71832275390625 654.3035888671875 366.54498291015625 653.7302856445312 365.10498046875 C 653.1569213867188 363.66497802734375 652.8702392578125 361.91497802734375 652.8702392578125 359.85498046875 C 652.8702392578125 358.4483337402344 653.0169067382812 356.84832763671875 653.3102416992188 355.05499267578125 C 653.6035766601562 353.26165771484375 654.0736083984375 351.41497802734375 654.7202758789062 349.5149841308594 C 655.3602294921875 347.614990234375 656.1902465820312 345.7583312988281 657.2102661132812 343.9449768066406 C 658.2302856445312 342.125 659.4735717773438 340.50164794921875 660.9402465820312 339.0749816894531 C 662.4069213867188 337.64166259765625 664.1002807617188 336.4883117675781 666.020263671875 335.614990234375 C 667.9402465820312 334.7349853515625 670.1302490234375 334.29498291015625 672.5902709960938 334.29498291015625 C 678.7568969726562 334.29498291015625 681.8402709960938 338.125 681.8402709960938 345.78497314453125 L 681.8402709960938 345.85498046875 C 681.9602661132812 345.9016418457031 682.0702514648438 345.92498779296875 682.1702880859375 345.92498779296875 C 682.2769165039062 345.92498779296875 682.423583984375 345.92498779296875 682.6102294921875 345.92498779296875 C 683.4569091796875 345.92498779296875 684.366943359375 345.8016662597656 685.3402709960938 345.55499267578125 C 686.3135986328125 345.31500244140625 687.290283203125 344.9949951171875 688.270263671875 344.5950012207031 C 689.2568969726562 344.1949768066406 690.2202758789062 343.7316589355469 691.1602783203125 343.2049865722656 C 692.0935668945312 342.6783142089844 692.9468994140625 342.1449890136719 693.7202758789062 341.60498046875 L 694.3502807617188 343.5749816894531 M 675.6202392578125 349.7649841308594 C 674.866943359375 349.5716552734375 674.35693359375 349.20166015625 674.0902709960938 348.6549987792969 C 673.81689453125 348.1016540527344 673.6802368164062 347.461669921875 673.6802368164062 346.7349853515625 C 673.6802368164062 345.72833251953125 673.8869018554688 344.9016418457031 674.3002319335938 344.2549743652344 C 674.7069091796875 343.614990234375 675.250244140625 343.14166259765625 675.9302368164062 342.8349914550781 C 675.8836059570312 342.0616455078125 675.8035888671875 341.4116516113281 675.6902465820312 340.8849792480469 C 675.5702514648438 340.3583068847656 675.403564453125 339.92498779296875 675.1902465820312 339.5849914550781 C 674.9835815429688 339.2449951171875 674.7202758789062 339.0049743652344 674.4002685546875 338.864990234375 C 674.0869140625 338.7249755859375 673.68359375 338.6549987792969 673.1902465820312 338.6549987792969 C 672.3236083984375 338.6549987792969 671.490234375 338.9883117675781 670.6902465820312 339.6549987792969 C 669.8969116210938 340.3216552734375 669.1436157226562 341.2049865722656 668.4302368164062 342.30499267578125 C 667.7102661132812 343.4116516113281 667.0535888671875 344.6716613769531 666.4602661132812 346.0849914550781 C 665.8602294921875 347.5049743652344 665.3502807617188 348.9649963378906 664.9302368164062 350.4649963378906 C 664.51025390625 351.9649963378906 664.1802368164062 353.4483337402344 663.9402465820312 354.91497802734375 C 663.7069091796875 356.375 663.5902709960938 357.7049865722656 663.5902709960938 358.9049987792969 C 663.5902709960938 360.09832763671875 663.6569213867188 361.0683288574219 663.790283203125 361.81500244140625 C 663.9169311523438 362.5683288574219 664.126953125 363.1616516113281 664.4202880859375 363.5950012207031 C 664.713623046875 364.0283203125 665.0935668945312 364.32830810546875 665.5602416992188 364.4949951171875 C 666.0335693359375 364.6549987792969 666.60693359375 364.7349853515625 667.2802734375 364.7349853515625 C 668.153564453125 364.7349853515625 669.0269165039062 364.34832763671875 669.9002685546875 363.5749816894531 C 670.7802734375 362.8016662597656 671.596923828125 361.7483215332031 672.3502807617188 360.41497802734375 C 673.096923828125 359.0749816894531 673.7568969726562 357.4916687011719 674.3302612304688 355.66497802734375 C 674.903564453125 353.83831787109375 675.3336181640625 351.87164306640625 675.6202392578125 349.7649841308594 Z" transform="matrix(5.199918746948242, 0, 0, 5.199918746948242, -2205.10302734375, -1344.592041015625)" style="fill: rgb(255, 255, 255); white-space: pre; color: rgb(51, 51, 51);"/></svg>